<?xml version="1.0" encoding="utf-8"?>
<svg id="Layer_1" data-name="Layer 1" xmlns="http://www.w3.org/2000/svg" viewBox="0 0 64 64"><defs><style>.cls-1{fill:none;stroke:#006aac;stroke-linecap:round;stroke-linejoin:round;stroke-width:2px;}</style></defs><title>AdvanceTools</title><g id="_Group_" data-name="&lt;Group&gt;"><g id="_Group_2" data-name="&lt;Group&gt;"><circle id="_Ellipse_" data-name="&lt;Ellipse&gt;" class="cls-1" cx="17" cy="27.5" r="3"/><circle id="_Ellipse_2" data-name="&lt;Ellipse&gt;" class="cls-1" cx="27" cy="23.5" r="3"/><circle id="_Ellipse_3" data-name="&lt;Ellipse&gt;" class="cls-1" cx="37" cy="28.5" r="3"/><circle id="_Ellipse_4" data-name="&lt;Ellipse&gt;" class="cls-1" cx="47" cy="21.5" r="3"/><line id="_Line_" data-name="&lt;Line&gt;" class="cls-1" x1="19.75" y1="26.3" x2="24.12" y2="24.34"/><line id="_Line_2" data-name="&lt;Line&gt;" class="cls-1" x1="39.6" y1="27" x2="44.82" y2="23.56"/><line id="_Line_3" data-name="&lt;Line&gt;" class="cls-1" x1="29.74" y1="24.72" x2="34.24" y2="27.33"/></g><g id="_Group_3" data-name="&lt;Group&gt;"><polyline id="_Path_" data-name="&lt;Path&gt;" class="cls-1" points="44 40.5 44 28.5 50 28.5 50 40.5"/><polyline id="_Path_2" data-name="&lt;Path&gt;" class="cls-1" points="34 40.5 34 35.5 40 35.5 40 40.5"/><polyline id="_Path_3" data-name="&lt;Path&gt;" class="cls-1" points="24 40.5 24 30.5 30 30.5 30 40.5"/><polyline id="_Path_4" data-name="&lt;Path&gt;" class="cls-1" points="14 40.5 14 34.5 20 34.5 20 40.5"/></g><g id="_Group_4" data-name="&lt;Group&gt;"><path id="_Path_5" data-name="&lt;Path&gt;" class="cls-1" d="M5,47.5v-34a2,2,0,0,1,2-2H57a2,2,0,0,1,2,2v34"/><path id="_Path_6" data-name="&lt;Path&gt;" class="cls-1" d="M38,47.5h0a2,2,0,0,1-2,2H28a2,2,0,0,1-2-2H1v2.21A2.79,2.79,0,0,0,3.79,52.5H60.21A2.79,2.79,0,0,0,63,49.71V47.5Z"/><polyline id="_Path_7" data-name="&lt;Path&gt;" class="cls-1" points="23 44.5 56 44.5 56 14.5 8 14.5 8 44.5 23 44.5"/></g></g></svg>