<?xml version="1.0" encoding="utf-8"?>
<svg id="Layer_1" data-name="Layer 1" xmlns="http://www.w3.org/2000/svg" viewBox="0 0 64 64"><defs><style>.cls-1{fill:#006aac;}</style></defs><title>AdvanceCourses</title><path class="cls-1" d="M63,60H39V58H61.28L42.13,24.48l1.74-1,20,35a1,1,0,0,1,0,1A1,1,0,0,1,63,60Z"/><path class="cls-1" d="M25,60H1a1,1,0,0,1-.87-.5,1,1,0,0,1,0-1l20-35,1.74,1L2.72,58H25Z"/><rect class="cls-1" x="39" y="49.98" width="19" height="2"/><rect class="cls-1" x="6" y="49.98" width="19" height="2"/><rect class="cls-1" x="39" y="41.98" width="15" height="2"/><rect class="cls-1" x="10" y="41.98" width="15" height="2"/><rect class="cls-1" x="39" y="33.98" width="10" height="2"/><rect class="cls-1" x="15" y="33.98" width="10" height="2"/><rect class="cls-1" x="39" y="25.98" width="6" height="2"/><rect class="cls-1" x="19" y="25.98" width="6" height="2"/><path class="cls-1" d="M37,60H35V21a1,1,0,0,1,1-1h3.29L32,7,24.71,20H28a1,1,0,0,1,1,1V60H27V22H23a1,1,0,0,1-.87-1.49l9-16a1,1,0,0,1,1.74,0l9,16A1,1,0,0,1,41,22H37Z"/><rect class="cls-1" x="31" y="57.98" width="2" height="2"/><rect class="cls-1" x="31" y="49.98" width="2" height="2"/><rect class="cls-1" x="31" y="41.98" width="2" height="2"/><rect class="cls-1" x="31" y="33.98" width="2" height="2"/><rect class="cls-1" x="31" y="25.98" width="2" height="2"/></svg>