<?xml version="1.0" encoding="utf-8"?>
<svg id="Layer_1" data-name="Layer 1" xmlns="http://www.w3.org/2000/svg" viewBox="0 0 64 64"><defs><style>.cls-1{fill:none;stroke:#006aac;stroke-linecap:round;stroke-linejoin:round;stroke-width:2px;}</style></defs><title>Checklist</title><polyline class="cls-1" points="41.43 53.73 44.47 57.53 51.1 50.71"/><circle class="cls-1" cx="46.35" cy="53.5" r="9.5"/><path class="cls-1" d="M31.1,4a3,3,0,0,0-6,0h-5v6h16V4Z"/><line class="cls-1" x1="33.1" y1="53" x2="27.1" y2="53"/><line class="cls-1" x1="27.1" y1="15" x2="36.1" y2="15"/><line class="cls-1" x1="20.1" y1="15" x2="24.1" y2="15"/><rect class="cls-1" x="12.1" y="32" width="4" height="4"/><line class="cls-1" x1="33.1" y1="36" x2="19.1" y2="36"/><line class="cls-1" x1="44.1" y1="36" x2="37.1" y2="36"/><line class="cls-1" x1="29.97" y1="32" x2="19.1" y2="32"/><line class="cls-1" x1="44.1" y1="32" x2="33.1" y2="32"/><line class="cls-1" x1="30.1" y1="26" x2="44.1" y2="26"/><line class="cls-1" x1="19.1" y1="26" x2="26.1" y2="26"/><line class="cls-1" x1="33.22" y1="22" x2="44.1" y2="22"/><line class="cls-1" x1="19.1" y1="22" x2="30.1" y2="22"/><line class="cls-1" x1="19.1" y1="46" x2="26.1" y2="46"/><line class="cls-1" x1="19.1" y1="42" x2="30.1" y2="42"/><rect class="cls-1" x="12.1" y="42" width="4" height="4"/><rect class="cls-1" x="12.1" y="22" width="4" height="4"/><line class="cls-1" x1="30.1" y1="46" x2="35.88" y2="46"/><line class="cls-1" x1="33.22" y1="42" x2="40.06" y2="42"/><polyline class="cls-1" points="34.78 60 8.15 60 8.15 7 20.1 7"/><polyline class="cls-1" points="48.05 41 48.05 7 36.1 7"/></svg>