<?xml version="1.0" encoding="utf-8"?>
<svg id="Layer_1" data-name="Layer 1" xmlns="http://www.w3.org/2000/svg" viewBox="0 0 50 50"><defs><style>.cls-1{fill:#fff;}</style></defs><title>CT Expert</title><rect class="cls-1" x="24.2" y="45.05" width="1.6" height="1.6"/><rect class="cls-1" x="24.2" y="41.84" width="1.6" height="1.6"/><path class="cls-1" d="M49.86,22.31c-.09-.78-.21-1.54-.38-2.33a22.81,22.81,0,0,0-1.09-3.77h0c-.08-.24-.17-.47-.27-.71L48,15.28c-.15-.36-.32-.71-.5-1.08-.35-.72-.68-1.33-1-1.86a25.17,25.17,0,0,0-8.85-8.85,20.48,20.48,0,0,0-1.86-1c-.41-.2-.77-.36-1.1-.5l-.79-.32-.35-.14c-.33-.12-.76-.27-1.2-.4S31.62.91,31.24.82h0C30.85.71,30.45.62,30,.54a22.8,22.8,0,0,0-2.45-.4C26.69.06,25.82,0,25,0a26.07,26.07,0,0,0-2.67.14A22.74,22.74,0,0,0,20,.53h0c-.4.07-.81.17-1.21.27s-.67.18-1.12.32-.94.31-1.42.48a23,23,0,0,0-2.85,1.3L13,3.1l-.37.21a13.8,13.8,0,0,0-1.32.8c-.28.18-.52.35-.72.5l-.5.35A17.78,17.78,0,0,0,8.72,6.07c-.35.3-.72.62-1.08,1q-.22.21-.45.45L7,7.73c-.53.56-1,1.08-1.41,1.6a.65.65,0,0,1-.13.16c-.35.46-.73,1-1.16,1.59l-.07.11,0,0c-.21.32-.39.6-.54.88l0,0c-.2.32-.39.66-.58,1s-.39.74-.54,1-.35.74-.5,1.11l-.08.2c-.1.24-.19.47-.27.71v0A18.32,18.32,0,0,0,1,18v0c-.11.34-.2.68-.28,1v0c-.07.24-.12.51-.18.76l0,.14a8.74,8.74,0,0,0-.17.89A24.17,24.17,0,0,0,0,25c0,.4,0,.82,0,1.22s.05.78.08,1.15v.1c0,.27.06.53.11.79v.05a12.63,12.63,0,0,0,.23,1.46c.09.46.16.83.25,1.2a24.22,24.22,0,0,0,2.37,6.16,1,1,0,0,0,1.71-1A23.14,23.14,0,0,1,8.66,8.7a22.76,22.76,0,0,1,9.76-5.79l.68-.2.24-.06h0l1-.23.13,0,.06,0c.57-.1,1.31-.24,2.1-.31L23.6,2c.45,0,.91,0,1.39,0s.94,0,1.41.05.61,0,.91.06.75.08,1.13.15.77.12,1.12.2l1.24.29.76.22c.57.18,1.17.39,1.82.65A22.52,22.52,0,0,1,41.32,8.7a23.1,23.1,0,0,1,3.89,27.47,1,1,0,1,0,1.68.93c.44-.83,1-2,1.28-2.65v0c.17-.39.3-.75.42-1.12v0a16,16,0,0,0,.54-1.69,17.18,17.18,0,0,0,.41-1.78v-.09l0,0s0-.06,0-.1,0-.32.08-.49.06-.31.08-.46l.14-1.25c0-.37.06-.77.08-1.15s0-.82,0-1.22A26.82,26.82,0,0,0,49.86,22.31Z"/><path class="cls-1" d="M18.55,34.46l-4,3.19-.21.06-2.23.75A10.21,10.21,0,0,0,8.6,40.32a3.38,3.38,0,0,0-1.38,2.25l.09.1a25,25,0,0,0,13.13,6.91l.85.14h.11a20.45,20.45,0,0,0,2.19.2c.49,0,.94,0,1.4,0h0c.46,0,.91,0,1.4,0a20.45,20.45,0,0,0,2.19-.2h.11l.85-.14a25,25,0,0,0,13.13-6.91l.09-.1a3.38,3.38,0,0,0-1.38-2.25,10.21,10.21,0,0,0-3.53-1.86l-2.23-.75-.21-.06-4-3.19L30,34.83V29.72l.19-.19a11.26,11.26,0,0,0,3-7.4v-.26l.8-.79V10.59a3.37,3.37,0,0,0-3.36-3.36H21.79a2.56,2.56,0,0,0-2.48,1.92l-.12.49h-.6A2.56,2.56,0,0,0,16,12.2v8.88l.8.79v.26a11.26,11.26,0,0,0,3,7.4l.19.19v5.11Zm3.4.85V31l.83.24a7.5,7.5,0,0,0,2.22.32,7.59,7.59,0,0,0,2.22-.32l.83-.24v4.29h0l-3,.76-3-.76Zm-4.6-22.2a2.05,2.05,0,0,1,2-2h.75V11A2.05,2.05,0,0,1,22.2,9h7.7a2.75,2.75,0,0,1,2.74,2.75v5.92l-1.23-2.9a1.77,1.77,0,0,0-1-1L30,13.59V11.94l-3.4,1.7H20.19a1.75,1.75,0,0,0-1.6,1l-1.24,2.76ZM25,29.85c-5.06,0-6.95-5.11-6.95-8.34v0l-.94-.94.74-.42a1.77,1.77,0,0,0,.89-1.52V17a1.45,1.45,0,0,1,1.45-1.45h6.45l3-1.51v1.51h.16A1.45,1.45,0,0,1,31.25,17v1.6a1.76,1.76,0,0,0,.9,1.52l.73.42-.94.94v0C31.94,24.74,30.06,29.85,25,29.85Zm1.64,6.86,4.21-1.06,2.75,2.21L28.76,40l-2.12-2.13Zm-7.51-1.06,4.21,1.06v1.17L21.22,40l-4.84-2.15ZM25,48.38c-8.65,0-15.33-6-15.33-6,0-2.14,6.88-3.51,6.88-3.51l5.29,2.35L25,38.07l3.16,3.16,5.29-2.35s6.88,1.37,6.88,3.51C40.32,42.39,33.64,48.38,25,48.38Z"/></svg>