<?xml version="1.0" encoding="utf-8"?>
<!-- Generator: Adobe Illustrator 23.0.1, SVG Export Plug-In . SVG Version: 6.00 Build 0)  -->
<svg version="1.1" id="Layer_1" xmlns="http://www.w3.org/2000/svg" xmlns:xlink="http://www.w3.org/1999/xlink" x="0px" y="0px"
	 viewBox="0 0 64 64" style="enable-background:new 0 0 64 64;" xml:space="preserve">
<style type="text/css">
	.st0{fill:#FFFFFF;}
	.st1{fill:#2966B1;}
</style>
<g>
	<circle class="st0" cx="32" cy="32" r="32"/>
	<g>
		<g>
			<g>
				<path class="st1" d="M26.2,45.7c-1.3,0-2.4,1.1-2.4,2.4c0,1.3,1.1,2.4,2.4,2.4c1.3,0,2.4-1.1,2.4-2.4S27.5,45.7,26.2,45.7z
					 M26.2,49.2c-0.6,0-1.1-0.5-1.1-1.1s0.5-1.1,1.1-1.1s1.1,0.5,1.1,1.1S26.8,49.2,26.2,49.2z"/>
			</g>
		</g>
		<g>
			<g>
				<path class="st1" d="M37.7,45.7c-1.3,0-2.4,1.1-2.4,2.4c0,1.3,1.1,2.4,2.4,2.4c1.3,0,2.4-1.1,2.4-2.4S39.1,45.7,37.7,45.7z
					 M37.7,49.2c-0.6,0-1.1-0.5-1.1-1.1s0.5-1.1,1.1-1.1c0.6,0,1.1,0.5,1.1,1.1S38.4,49.2,37.7,49.2z"/>
			</g>
		</g>
		<g>
			<g>
				<path class="st1" d="M43.5,32.3c-0.3-0.1-0.7,0.2-0.7,0.5l-0.9,6.7c-0.1,0.3-0.3,0.5-0.6,0.5H23l-2.5-10.7h8
					c0.3,0,0.6-0.3,0.6-0.6c0-0.3-0.3-0.6-0.6-0.6h-8.3l-1.5-6.3c-0.2-0.9-1-1.5-1.8-1.5h-3.1c-0.3,0-0.6,0.3-0.6,0.6
					c0,0.3,0.3,0.6,0.6,0.6H17c0.3,0,0.5,0.2,0.6,0.5l5,21.8c0.1,0.3,0.3,0.5,0.6,0.5h18.4c0.3,0,0.6-0.3,0.6-0.6
					c0-0.3-0.3-0.6-0.6-0.6H23.7l-0.4-1.8h17.9c0.9,0,1.7-0.6,1.9-1.5l0.9-6.7C44,32.7,43.8,32.4,43.5,32.3z"/>
			</g>
		</g>
		<path class="st1" d="M30.6,35.5c-0.1,0-0.3,0-0.4-0.1C30.1,35.2,30,35,30,34.7L36.3,14c0.1-0.2,0.3-0.4,0.5-0.4
			c0.2,0,0.5,0.1,0.6,0.3l2.9,5.1l4-4.6c0.2-0.2,0.6-0.3,0.8-0.1l3.7,3.2c0.2,0.2,0.3,0.6,0.1,0.8l-4,4.6l5.5,2
			c0.2,0.1,0.4,0.3,0.4,0.5c0,0.2-0.1,0.5-0.3,0.6l-19.6,9.4C30.8,35.5,30.7,35.5,30.6,35.5z M37.1,15.6l-5.5,18.1l17.1-8.2
			l-4.9-1.9c-0.2-0.1-0.3-0.2-0.4-0.4c0-0.2,0-0.4,0.1-0.5l4.1-4.8l-2.8-2.4l-4.1,4.8c-0.1,0.1-0.3,0.2-0.5,0.2
			c-0.2,0-0.4-0.1-0.5-0.3L37.1,15.6z"/>
	</g>
</g>
</svg>
