<?xml version="1.0" encoding="utf-8"?>
<svg id="Layer_1" data-name="Layer 1" xmlns="http://www.w3.org/2000/svg" viewBox="0 0 50 50"><defs><style>.cls-1{fill:#fff;}</style></defs><title>Featured Customer</title><path class="cls-1" d="M49.84,17.79c-.26-3.52-.36-10.51-2.73-13.28C43.83.69,39.37.15,25.21.12c-4.73,0-8.55.07-11.66.36C8.65,1,6.24,1.09,3.4,4,.82,6.68.8,10,.13,17.79c0,0-.19,4.05-.11,7.15C.33,37.35.5,43.06,3.52,46.21c3.2,3.34,9.2,3.67,21.47,3.67,11.94,0,18.18-.37,21.38-3.67s3-7.17,3.47-13.85C50.07,27.72,50,22.76,49.84,17.79ZM18,37.52s-7.93.22-9.76-.16-2-1.76-2.05-3.83S6,22,7.5,19.1a12.77,12.77,0,0,1,7.67-6.56c.93-.31,1.08-.08,1.1,0l.54,3a.73.73,0,0,1-.47.91c-.68.33-2.53,1.64-2.84,2.62a4.9,4.9,0,0,0,0,2.62l5.3.36a3.07,3.07,0,0,1,2.88,3.06s.26,4.76,0,9.36C21.68,34.46,22,37.58,18,37.52Zm24.16-6.43a12.36,12.36,0,0,1-7.56,6.49c-.93.3-1.08.09-1.09,0l-.55-3a.74.74,0,0,1,.48-.91c.68-.34,2.53-1.64,2.84-2.62a4.89,4.89,0,0,0,0-2.62L31,28.08a3.06,3.06,0,0,1-2.87-3s0-4.67.11-9.37c0,0-.4-3.12,3.59-3.05,0,0,7.93-.23,9.76.16s2,1.75,2.12,3.83S44.78,25.75,42.14,31.09Z"/></svg>