<?xml version="1.0" encoding="utf-8"?>
<svg id="Layer_1" data-name="Layer 1" xmlns="http://www.w3.org/2000/svg" viewBox="0 0 50 50"><defs><style>.cls-1{fill:#fff;}</style></defs><title>Gear</title><path class="cls-1" d="M26.3,15.87l-.5-.13,0-2.89H24.3v2.89l-.5.13A5,5,0,0,0,20,20.7c0,2.77,4.22,4.77,4.7,5,1,.45,3.81,2.07,3.8,3.6A3.51,3.51,0,0,1,25,32.79h0a3.52,3.52,0,0,1-3.44-2.87H20a5,5,0,0,0,3.71,4.21l.5.13,0,2.89H25.7V34.27l.5-.13A5,5,0,0,0,30,29.3c0-2.77-4.22-4.77-4.7-5-1-.45-3.81-2.07-3.8-3.6A3.51,3.51,0,0,1,25,17.21h0a3.52,3.52,0,0,1,3.44,2.87H30A5,5,0,0,0,26.3,15.87Z"/><rect class="cls-1" x="34.21" y="24.29" width="1.52" height="1.52" transform="translate(9.75 59.9) rotate(-89.72)"/><rect class="cls-1" x="14.27" y="24.19" width="1.52" height="1.52" transform="translate(-9.99 39.86) rotate(-89.72)"/><path class="cls-1" d="M30,49.71a.75.75,0,0,0,.59.29h0a.87.87,0,0,0,.28,0L38,47.13a.75.75,0,0,0,.47-.7l0-7.79,7.79,0h0A.77.77,0,0,0,47,38.2l2.88-7.1a.76.76,0,0,0-.23-.88h0L43.3,25.09,49.71,20a.75.75,0,0,0,.24-.87L47.13,12a.77.77,0,0,0-.7-.49l-7.79,0,0-7.79A.78.78,0,0,0,38.21,3L31.1.11a.78.78,0,0,0-.88.23L25.09,6.69,20,.29a.76.76,0,0,0-.87-.24L12,2.87a.75.75,0,0,0-.47.7l0,7.79-7.79,0a.76.76,0,0,0-.71.47L.11,18.9a.76.76,0,0,0,.23.88l6.35,5.13L.29,30a.75.75,0,0,0-.24.87L2.87,38a.75.75,0,0,0,.7.48l7.79,0,0,7.79a.78.78,0,0,0,.47.71l7.11,2.88a.78.78,0,0,0,.88-.23l5.13-6.36ZM19.05,47.9l-6-2.44,0-7.9a.75.75,0,0,0-.74-.75l-7.91,0L2,30.73l6.6-5.23a.76.76,0,0,0,.29-.58.74.74,0,0,0-.28-.58L2.1,19.05l2.44-6,7.9,0h0a.75.75,0,0,0,.75-.74l0-7.91,6-2.38,5.23,6.6a.73.73,0,0,0,.58.26h0a.73.73,0,0,0,.58-.25L31,2.1l6,2.44,0,7.9a.75.75,0,0,0,.74.75l7.91,0,2.38,6-6.6,5.23a.76.76,0,0,0-.29.58.74.74,0,0,0,.28.58L47.9,31l-2.44,6-7.9,0h0a.75.75,0,0,0-.53.22.73.73,0,0,0-.22.52l0,7.91-6,2.38-5.23-6.6a.76.76,0,0,0-.58-.29h0a.72.72,0,0,0-.58.28Z"/></svg>