<?xml version="1.0" encoding="utf-8"?>
<svg id="Layer_1" data-name="Layer 1" xmlns="http://www.w3.org/2000/svg" viewBox="0 0 50 50"><defs><style>.cls-1{fill:#fff;}</style></defs><title>Google</title><path id="path2998" class="cls-1" d="M49,22.76H26v6.81H42.29c-.81,9.54-8.75,13.61-16.24,13.61a17.89,17.89,0,0,1-18-18.12,17.92,17.92,0,0,1,18-18.23,17.67,17.67,0,0,1,12.26,4.91L43.1,6.81A24.24,24.24,0,0,0,25.82,0,25.41,25.41,0,0,0,.63,24.94,25.33,25.33,0,0,0,26.19,50c13.38,0,23.18-9.17,23.18-22.73A20.13,20.13,0,0,0,49,22.76Z"/></svg>