<?xml version="1.0" encoding="utf-8"?>
<svg id="Layer_1" data-name="Layer 1" xmlns="http://www.w3.org/2000/svg" viewBox="0 0 64 64"><defs><style>.cls-1{fill:#006aac;}</style></defs><title>IncentivePrograms</title><rect class="cls-1" x="47" y="58" width="16" height="2"/><path class="cls-1" d="M59,64a1,1,0,0,1-.71-.29,1,1,0,0,1,0-1.42L61.59,59l-3.3-3.29a1,1,0,0,1,1.42-1.42l4,4a1,1,0,0,1,0,1.42l-4,4A1,1,0,0,1,59,64Z"/><path class="cls-1" d="M36,10a1,1,0,0,1-.71-.29l-4-4a1,1,0,0,1,0-1.42l4-4a1,1,0,1,1,1.42,1.42L33.41,5l3.3,3.29a1,1,0,0,1,0,1.42A1,1,0,0,1,36,10Z"/><path class="cls-1" d="M32,60H0V58H32A26,26,0,0,0,32,6V4a28,28,0,0,1,0,56Z"/><path class="cls-1" d="M17.48,56A28,28,0,0,1,26.89,4.47l.37,2a26,26,0,0,0-8.74,47.81Z"/><path class="cls-1" d="M32,50A18,18,0,1,1,50,32,18,18,0,0,1,32,50Zm0-34A16,16,0,1,0,48,32,16,16,0,0,0,32,16Z"/><rect class="cls-1" x="31" y="40" width="2" height="3"/><rect class="cls-1" x="31" y="21" width="2" height="3"/><path class="cls-1" d="M32,41a5,5,0,0,1-5-5h2a3,3,0,0,0,6,0c0-1.06-2-2.47-3.41-3.09C31.12,32.7,27,30.78,27,28a5,5,0,0,1,10,0H35a3,3,0,0,0-6,0c0,1.06,2,2.47,3.41,3.09C32.88,31.3,37,33.22,37,36A5,5,0,0,1,32,41Z"/><rect class="cls-1" x="21" y="31" width="2" height="2"/><rect class="cls-1" x="41" y="31" width="2" height="2"/></svg>