<?xml version="1.0" encoding="utf-8"?>
<svg id="Layer_1" data-name="Layer 1" xmlns="http://www.w3.org/2000/svg" viewBox="0 0 64 64"><defs><style>.cls-1{fill:none;stroke:#006aac;stroke-linecap:round;stroke-linejoin:round;stroke-width:2px;}</style></defs><title>Integrations</title><path class="cls-1" d="M49,29.89l-1.89-.2a15.68,15.68,0,0,0-1.74-4.22L46.6,24l1.2-1.47-1.21-1.21-1.2-1.2L44.18,18.9,43,17.7,41.5,18.89,40,20.09a15.18,15.18,0,0,0-2.05-1,15.58,15.58,0,0,0-2.16-.71l-.2-1.89-.2-1.89H28.59l-.2,1.89-.2,1.89a15.58,15.58,0,0,0-2.16.71,15.18,15.18,0,0,0-2.05,1l-1.48-1.2L21,17.7l-1.2,1.2-1.21,1.21-1.2,1.2L16.2,22.52,17.4,24l1.19,1.48a15.68,15.68,0,0,0-1.74,4.22l-1.89.2-1.89.2V36.9l1.89.2,1.89.2a15.68,15.68,0,0,0,1.74,4.22L17.4,43l-1.2,1.47,1.21,1.21,1.2,1.2,1.21,1.21,1.2,1.2L22.5,48.1,24,46.9a15.18,15.18,0,0,0,2.05,1,17,17,0,0,0,2.16.71l.2,1.89.2,1.89h6.82l.2-1.89.2-1.89A17,17,0,0,0,38,47.94a15.18,15.18,0,0,0,2.05-1l1.48,1.2L43,49.29l1.2-1.2,1.21-1.21,1.2-1.2,1.21-1.21L46.6,43l-1.19-1.48a15.68,15.68,0,0,0,1.74-4.22L49,37.1l1.89-.2V30.09Z"/><path class="cls-1" d="M40.45,42a12,12,0,1,1,0-16.91A11.91,11.91,0,0,1,40.45,42Z"/><path class="cls-1" d="M48.05,48.44H61a2,2,0,0,0,2-2V8.58a2,2,0,0,0-2-2H3a2,2,0,0,0-2,2V46.45a2,2,0,0,0,2,2H16"/><polyline class="cls-1" points="53.92 38.48 59.9 38.48 59.9 9.58 4.1 9.58 4.1 38.48 10.08 38.48"/><line class="cls-1" x1="1.11" y1="41.47" x2="14.79" y2="41.47"/><line class="cls-1" x1="62.89" y1="41.47" x2="49.21" y2="41.47"/><line class="cls-1" x1="25.02" y1="51.63" x2="25.02" y2="57.41"/><line class="cls-1" x1="38.98" y1="57.41" x2="38.98" y2="51.63"/><polyline class="cls-1" points="17.05 57.41 25.02 57.41 38.98 57.41 46.95 57.41"/><line class="cls-1" x1="30.7" y1="37.08" x2="33.3" y2="29.91"/><polyline class="cls-1" points="36.22 29.97 39.73 33.49 36.22 37.01"/><polyline class="cls-1" points="27.79 29.97 24.27 33.49 27.79 37.01"/></svg>