<?xml version="1.0" encoding="utf-8"?>
<svg id="Layer_1" data-name="Layer 1" xmlns="http://www.w3.org/2000/svg" viewBox="0 0 64 64"><defs><style>.cls-1{fill:#006aac;}</style></defs><title>Recruitement</title><rect class="cls-1" x="25" y="38" width="2" height="6"/><rect class="cls-1" x="37" y="38" width="2" height="6"/><path class="cls-1" d="M43,25H42a3,3,0,0,1-3-3V20a1,1,0,0,0-1-1H37V17.62L34.24,19H26a1,1,0,0,0-1,1v2a3,3,0,0,1-3,3V23a1,1,0,0,0,1-1V20a3,3,0,0,1,3-3h7.76L39,14.38v2.79A3,3,0,0,1,41,20v2a1,1,0,0,0,1,1h1Z"/><rect class="cls-1" x="21" y="23" width="1" height="2"/><path class="cls-1" d="M32,41c-7.79,0-10.83-7.54-11-12.58l-1-1V16a4,4,0,0,1,4-4h.13A4,4,0,0,1,28,9H39a5,5,0,0,1,5,5V27.41l-1,1C42.83,33.46,39.79,41,32,41ZM22,26.59l1,1V28c0,4.25,2.44,11,9,11s9-6.75,9-11v-.41l1-1V14a3,3,0,0,0-3-3H28a2,2,0,0,0-2,2v1H24a2,2,0,0,0-2,2Z"/><path class="cls-1" d="M28.22,53.19,17.09,48.25l6.67-5.34L33,45.22v3.19Zm-7.31-5.44,6.87,3.06L31,47.59v-.81l-6.76-1.69Z"/><path class="cls-1" d="M35.78,53.19,31,48.41V45.22l9.24-2.31,6.67,5.34ZM33,47.59l3.22,3.22,6.87-3.06-3.33-2.66L33,46.78Z"/><rect class="cls-1" x="31" y="57" width="2" height="2"/><rect class="cls-1" x="31" y="53" width="2" height="2"/><path class="cls-1" d="M5.16,49.55a32,32,0,1,1,53.68,0l-1.68-1.1A30,30,0,1,0,2,32,29.77,29.77,0,0,0,6.84,48.45Z"/><path class="cls-1" d="M32,64A31.89,31.89,0,0,1,9.29,54.71L9,54.42V54c0-.38.19-3.78,6.68-6l3-1,.64,1.9-3,1c-3.92,1.3-5,3-5.23,3.72A29.9,29.9,0,0,0,32,62a29.67,29.67,0,0,0,20.91-8.33c-.26-.7-1.29-2.41-5.23-3.72l-3-1,.64-1.9,3,1C54.81,50.22,55,53.62,55,54v.41l-.29.29A31.62,31.62,0,0,1,32,64Z"/><path class="cls-1" d="M6,50l-.2,0-5-1,.4-2,4,.8.8-4,2,.4-1,5A1,1,0,0,1,6,50Z"/><path class="cls-1" d="M58,50a1,1,0,0,1-1-.8l-1-5,2-.4.8,4,4-.8.4,2-5,1Z"/></svg>